<?xml version="1.0" standalone="no"?>
<!DOCTYPE svg PUBLIC "-//W3C//DTD SVG 20010904//EN"
 "http://www.w3.org/TR/2001/REC-SVG-20010904/DTD/svg10.dtd">
<svg version="1.0" xmlns="http://www.w3.org/2000/svg"
 width="169.000000pt" height="168.000000pt" viewBox="0 0 169.000000 168.000000"
 preserveAspectRatio="xMidYMid meet">
<metadata>
Created by potrace 1.16, written by Peter Selinger 2001-2019
</metadata>
<g transform="translate(0.000000,168.000000) scale(0.100000,-0.100000)"
fill="#000000" stroke="none">
<path d="M280 1470 l0 -60 30 0 c27 0 30 -3 30 -30 0 -25 4 -30 25 -30 20 0
25 -5 25 -25 0 -21 5 -25 30 -25 30 0 30 -1 30 -55 0 -52 1 -55 25 -55 24 0
25 -3 25 -60 l0 -60 145 0 145 0 0 -30 0 -30 110 0 110 0 0 -25 c0 -24 3 -25
55 -25 52 0 55 1 55 25 0 21 5 25 30 25 30 0 30 1 30 55 0 54 0 55 30 55 28 0
30 3 30 35 0 32 2 35 30 35 28 0 30 -3 30 -35 0 -31 3 -35 25 -35 l25 0 0
-140 0 -140 30 0 c30 0 30 -1 30 -55 0 -52 1 -55 25 -55 24 0 25 -3 25 -55 0
-52 -1 -55 -25 -55 l-25 0 0 -115 0 -115 -30 0 c-25 0 -30 -4 -30 -25 0 -20
-5 -25 -25 -25 -21 0 -25 -5 -25 -30 l0 -30 -90 0 -90 0 0 -30 0 -30 -195 0
-195 0 0 30 0 30 -85 0 -85 0 0 30 c0 27 -3 30 -30 30 -25 0 -30 4 -30 25 0
20 -5 25 -25 25 -24 0 -25 3 -25 55 0 54 0 55 -30 55 l-30 0 0 60 c0 57 -1 60
-25 60 -25 0 -25 1 -25 85 l0 85 -30 0 -30 0 0 140 0 140 30 0 c25 0 30 4 30
25 0 21 -5 25 -30 25 l-30 0 0 115 0 115 -30 0 -30 0 0 -310 0 -310 30 0 30 0
0 -85 0 -85 30 0 30 0 0 -85 c0 -84 0 -85 25 -85 20 0 25 -5 25 -25 0 -21 5
-25 30 -25 27 0 30 -3 30 -30 0 -30 1 -30 55 -30 54 0 55 0 55 -30 0 -27 3
-30 30 -30 27 0 30 -3 30 -30 l0 -30 310 0 310 0 0 30 c0 30 1 30 55 30 54 0
55 0 55 30 0 27 3 30 30 30 27 0 30 3 30 30 0 25 4 30 25 30 25 0 25 1 25 80
l0 80 30 0 30 0 0 115 0 115 -30 0 -30 0 0 140 0 140 -25 0 -25 0 0 145 0 145
-30 0 c-25 0 -30 4 -30 25 0 24 -3 25 -55 25 -52 0 -55 -1 -55 -25 0 -21 -5
-25 -30 -25 -30 0 -30 -1 -30 -55 0 -54 0 -55 -30 -55 l-30 0 0 -60 0 -60
-110 0 -110 0 0 25 0 25 -140 0 -140 0 0 35 0 35 -60 0 -60 0 0 80 c0 79 0 80
-25 80 -24 0 -25 3 -25 60 l0 60 -30 0 c-27 0 -30 3 -30 30 0 30 -1 30 -55 30
l-55 0 0 -60z"/>
<path d="M500 870 c0 -25 -4 -30 -25 -30 -20 0 -25 -5 -25 -25 0 -20 5 -25 25
-25 21 0 25 -5 25 -30 l0 -30 60 0 60 0 0 85 0 85 -60 0 -60 0 0 -30z"/>
<path d="M900 760 l0 -80 -55 0 c-54 0 -55 0 -55 -30 l0 -30 -85 0 -85 0 0
-85 0 -85 55 0 c52 0 55 1 55 25 0 24 3 25 55 25 54 0 55 0 55 30 0 27 3 30
30 30 27 0 30 3 30 30 0 27 3 30 30 30 27 0 30 3 30 30 0 30 1 30 55 30 l55 0
0 80 0 80 -85 0 -85 0 0 -80z"/>
</g>
</svg>
